<svg width="12" height="12" viewBox="0 0 12 12" fill="none" xmlns="http://www.w3.org/2000/svg">
<path d="M3.05688 4.64585L2.20019 5.49994H3.4099H10.9999C11.1325 5.49994 11.2597 5.55262 11.3534 5.64639C11.4472 5.74016 11.4999 5.86733 11.4999 5.99994C11.4999 6.13255 11.4472 6.25973 11.3534 6.35349C11.2597 6.44726 11.1325 6.49994 10.9999 6.49994H3.4099H2.20019L3.05688 7.35403L6.35688 10.644L6.3578 10.6449C6.40466 10.6914 6.44186 10.7467 6.46724 10.8077C6.49263 10.8686 6.50569 10.9339 6.50569 10.9999C6.50569 11.0659 6.49263 11.1313 6.46724 11.1922C6.44186 11.2532 6.40466 11.3085 6.3578 11.3549L6.35778 11.3549L6.3549 11.3578C6.30841 11.4047 6.25311 11.4419 6.19218 11.4673C6.13126 11.4927 6.06591 11.5057 5.9999 11.5057C5.93389 11.5057 5.86854 11.4927 5.80761 11.4673C5.74668 11.4419 5.69138 11.4047 5.6449 11.3578L5.64345 11.3564L0.647971 6.36091C0.603933 6.31407 0.569333 6.25916 0.546081 6.19919L0.546173 6.19915L0.54239 6.18994C0.492381 6.06821 0.492381 5.93167 0.54239 5.80994L0.542481 5.80998L0.546081 5.80069C0.569333 5.74073 0.603933 5.68582 0.64797 5.63897L5.64345 0.643495L5.29173 0.291773L5.64345 0.643494C5.73799 0.548959 5.8662 0.49585 5.9999 0.49585C6.13359 0.49585 6.26181 0.548959 6.35634 0.643494C6.45088 0.73803 6.50399 0.866248 6.50399 0.999941C6.50399 1.13356 6.45094 1.26171 6.3565 1.35623C6.35645 1.35628 6.3564 1.35633 6.35634 1.35639L3.05688 4.64585Z" fill="#333333" stroke="#333333"/>
</svg>
