<svg width="12" height="12" viewBox="0 0 12 12" fill="none" xmlns="http://www.w3.org/2000/svg">
<path d="M11.4538 5.80069L11.4537 5.80073L11.4575 5.80994C11.5075 5.93167 11.5075 6.06821 11.4575 6.18994L11.4574 6.1899L11.4538 6.19919C11.4306 6.25916 11.396 6.31406 11.3519 6.36091L6.35644 11.3564L6.355 11.3578C6.30852 11.4047 6.25321 11.4419 6.19229 11.4673C6.13136 11.4927 6.06601 11.5057 6 11.5057C5.93399 11.5057 5.86864 11.4927 5.80771 11.4673C5.74679 11.4419 5.69148 11.4047 5.645 11.3578L5.6421 11.3549C5.59524 11.3085 5.55804 11.2532 5.53266 11.1922C5.50727 11.1313 5.4942 11.0659 5.4942 10.9999C5.4942 10.9339 5.50727 10.8686 5.53266 10.8077C5.55804 10.7467 5.59524 10.6914 5.6421 10.6449L5.64302 10.644L8.94302 7.35403L9.7997 6.49994H8.59H1C0.867392 6.49994 0.740215 6.44726 0.646447 6.35349C0.552678 6.25973 0.5 6.13255 0.5 5.99994C0.5 5.86733 0.552678 5.74016 0.646447 5.64639C0.740215 5.55262 0.867392 5.49994 1 5.49994H8.59H9.7997L8.94302 4.64585L5.64355 1.35639C5.6435 1.35633 5.64345 1.35628 5.64339 1.35623C5.54896 1.26171 5.49591 1.13356 5.49591 0.999941C5.49591 0.933741 5.50895 0.868192 5.53428 0.807034C5.55961 0.745875 5.59674 0.690304 5.64355 0.643495C5.73809 0.548959 5.86631 0.49585 6 0.49585C6.0662 0.49585 6.13175 0.508888 6.19291 0.534222C6.25407 0.559555 6.30964 0.596686 6.35645 0.643494L6.70831 0.291633L6.35645 0.643495L11.3519 5.63897C11.396 5.68582 11.4306 5.74073 11.4538 5.80069Z" fill="#333333" stroke="#333333"/>
</svg>
