<svg width="20" height="20" viewBox="0 0 20 20" fill="none" xmlns="http://www.w3.org/2000/svg">
<path d="M7.24289 15.4999L7.24289 15.4999H7.24H3C2.86739 15.4999 2.74021 15.4473 2.64645 15.3535C2.55268 15.2597 2.5 15.1325 2.5 14.9999L2.50001 10.7599L2.49999 10.757C2.49961 10.6912 2.51222 10.626 2.53711 10.5651C2.56186 10.5045 2.59826 10.4494 2.64426 10.4028C2.6445 10.4025 2.64475 10.4023 2.64499 10.402L9.5833 3.47375L9.58418 3.47287L12.4042 0.642867L12.405 0.64204C12.4515 0.595175 12.5068 0.557978 12.5677 0.532594C12.6286 0.50721 12.694 0.494141 12.76 0.494141C12.826 0.494141 12.8914 0.50721 12.9523 0.532594C13.0131 0.557945 13.0684 0.595077 13.1148 0.641855C13.1149 0.641917 13.1149 0.641978 13.115 0.64204L17.3544 4.93141L17.3544 4.93143L17.3579 4.93494C17.4048 4.98142 17.442 5.03672 17.4673 5.09765C17.4927 5.15858 17.5058 5.22393 17.5058 5.28994C17.5058 5.35595 17.4927 5.4213 17.4673 5.48223C17.4421 5.54276 17.4052 5.59773 17.3588 5.64403C17.3585 5.64433 17.3582 5.64464 17.3579 5.64494L14.5202 8.42263L14.5202 8.42261L14.5162 8.42664L7.59789 15.3549C7.59767 15.3552 7.59744 15.3554 7.59722 15.3556C7.55064 15.4016 7.49547 15.4381 7.43484 15.4628C7.37393 15.4877 7.30869 15.5003 7.24289 15.4999ZM13.1136 2.05639L12.76 1.70283L12.4064 2.05639L10.9864 3.47639L10.6329 3.82994L10.9864 4.18349L13.8164 7.01349L14.17 7.36705L14.5236 7.01349L15.9436 5.59349L16.2971 5.23994L15.9436 4.88639L13.1136 2.05639ZM3.64645 10.8164L3.5 10.9628V11.1699V13.9999V14.4999H4H6.83H7.03711L7.18355 14.3535L13.1136 8.42349L13.4671 8.06994L13.1136 7.71639L10.2836 4.88639L9.93 4.53283L9.57645 4.88639L3.64645 10.8164ZM1 18.4999H19C19.1326 18.4999 19.2598 18.5526 19.3536 18.6464C19.4473 18.7402 19.5 18.8673 19.5 18.9999C19.5 19.1325 19.4473 19.2597 19.3536 19.3535C19.2598 19.4473 19.1326 19.4999 19 19.4999H1C0.867391 19.4999 0.740214 19.4473 0.646446 19.3535C0.552679 19.2597 0.5 19.1325 0.5 18.9999C0.5 18.8673 0.552679 18.7402 0.646446 18.6464C0.740214 18.5526 0.867391 18.4999 1 18.4999Z" fill="#333333" stroke="#333333"/>
</svg>
