<svg width="18" height="20" viewBox="0 0 18 20" fill="none" xmlns="http://www.w3.org/2000/svg">
<path d="M12.5 4V4.5H13H17C17.1326 4.5 17.2598 4.55268 17.3536 4.64645C17.4473 4.74021 17.5 4.86739 17.5 5C17.5 5.13261 17.4473 5.25979 17.3536 5.35355C17.2598 5.44732 17.1326 5.5 17 5.5H16H15.5V6V17C15.5 17.663 15.2366 18.2989 14.7678 18.7678C14.2989 19.2366 13.663 19.5 13 19.5H5C4.33696 19.5 3.70107 19.2366 3.23223 18.7678C2.76339 18.2989 2.5 17.663 2.5 17V6V5.5H2H1C0.867392 5.5 0.740215 5.44732 0.646446 5.35355C0.552678 5.25979 0.5 5.13261 0.5 5C0.5 4.86739 0.552678 4.74021 0.646446 4.64645C0.740215 4.55268 0.867392 4.5 1 4.5H5H5.5V4V3C5.5 2.33696 5.76339 1.70107 6.23223 1.23223C6.70107 0.763392 7.33696 0.5 8 0.5H10C10.663 0.5 11.2989 0.763392 11.7678 1.23223C12.2366 1.70107 12.5 2.33696 12.5 3V4ZM11 4.5H11.5V4V3C11.5 2.60217 11.342 2.22064 11.0607 1.93934C10.7794 1.65804 10.3978 1.5 10 1.5H8C7.60218 1.5 7.22064 1.65804 6.93934 1.93934C6.65804 2.22064 6.5 2.60217 6.5 3V4V4.5H7H11ZM4 5.5H3.5V6V17C3.5 17.3978 3.65804 17.7794 3.93934 18.0607C4.22064 18.342 4.60218 18.5 5 18.5H13C13.3978 18.5 13.7794 18.342 14.0607 18.0607C14.342 17.7794 14.5 17.3978 14.5 17V6V5.5H14H4ZM7.35355 15.3536C7.25979 15.4473 7.13261 15.5 7 15.5C6.86739 15.5 6.74021 15.4473 6.64645 15.3536C6.55268 15.2598 6.5 15.1326 6.5 15V9C6.5 8.86739 6.55268 8.74022 6.64645 8.64645C6.74022 8.55268 6.86739 8.5 7 8.5C7.13261 8.5 7.25978 8.55268 7.35355 8.64645C7.44732 8.74022 7.5 8.86739 7.5 9V15C7.5 15.1326 7.44732 15.2598 7.35355 15.3536ZM11.3536 15.3536C11.2598 15.4473 11.1326 15.5 11 15.5C10.8674 15.5 10.7402 15.4473 10.6464 15.3536C10.5527 15.2598 10.5 15.1326 10.5 15V9C10.5 8.86739 10.5527 8.74022 10.6464 8.64645C10.7402 8.55268 10.8674 8.5 11 8.5C11.1326 8.5 11.2598 8.55268 11.3536 8.64645C11.4473 8.74022 11.5 8.86739 11.5 9V15C11.5 15.1326 11.4473 15.2598 11.3536 15.3536Z" fill="#333333" stroke="#333333"/>
</svg>
